<?xml version="1.0" encoding="utf-8"?>
<!-- Generator: Adobe Illustrator 22.0.1, SVG Export Plug-In . SVG Version: 6.00 Build 0)  -->
<svg version="1.1" id="Capa_1" xmlns="http://www.w3.org/2000/svg" xmlns:xlink="http://www.w3.org/1999/xlink" x="0px" y="0px"
	 viewBox="0 0 1100 538.9" style="enable-background:new 0 0 1100 538.9;" xml:space="preserve">
<style type="text/css">
	.st0{clip-path:url(#SVGID_2_);fill:#BDBCBC;}
</style>
<g>
	<defs>
		<rect id="SVGID_1_" width="1100" height="405"/>
	</defs>
	<clipPath id="SVGID_2_">
		<use xlink:href="#SVGID_1_"  style="overflow:visible;"/>
	</clipPath>
	<path class="st0" d="M1053.2,346.7h3c0.9,0,1.6-0.4,1.6-1.5c0-1.6-1.2-1.7-2.6-1.7h-18.6V339h17.7c1.7,0,4-0.1,5.6,1.3
		c1.4,1.3,1.6,3.3,1.6,5.5c0,1.6-0.6,3.4-2.5,4.7c-0.9,0.6-3.6,0.8-5.8,0.6V346.7z"/>
	<path class="st0" d="M1046.9,335.1c-6.2-0.2-10.8-0.7-10.8-7.9c0-7.2,4.6-7.7,10.8-7.9h3.5c6.5,0,11.2,0.5,11.2,7.9
		c0,7.4-4.7,7.9-11.2,7.9H1046.9z M1052.6,330.4c2,0,5.3-0.2,5.3-3.3c0-3.2-3.3-3.3-5.7-3.3h-6.2c-1.9,0-6.2-0.1-6.2,3.3
		c0,3.6,4.2,3.3,6.1,3.3H1052.6z"/>
	<rect x="1036.7" y="310.5" class="st0" width="24.3" height="4.5"/>
	<path class="st0" d="M1036.7,295.3v-4.5h24.3v4.7l-8.6,3.5c-2.9,1.2-5.8,2.2-9.6,3.2v0.1c2-0.2,4.5-0.4,6.9-0.5
		c2.4-0.1,4.9-0.2,6.8-0.2h4.6v4.5h-24.3v-4.7l8.8-3.5c2.8-1.2,5.7-2.1,9.6-3.2v-0.1c-2.2,0.2-4.6,0.3-6.9,0.5
		c-2.3,0.1-4.7,0.2-6.8,0.2H1036.7z"/>
	<polygon class="st0" points="1060.9,278.2 1036.7,278.2 1036.7,273.7 1057.4,273.7 1057.4,265.3 1060.9,265.3 	"/>
	<rect x="1036.7" y="257.5" class="st0" width="24.3" height="4.5"/>
	<polygon class="st0" points="1060.9,252.9 1036.7,252.9 1036.7,240 1040.2,240 1040.2,248.4 1046.4,248.4 1046.4,240.6 
		1049.9,240.6 1049.9,248.4 1060.9,248.4 	"/>
	<polygon class="st0" points="1060.9,237 1036.7,237 1036.7,224.2 1040.2,224.2 1040.2,232.5 1046.3,232.5 1046.3,224.9 
		1049.9,224.9 1049.9,232.5 1057.4,232.5 1057.4,224.2 1060.9,224.2 	"/>
	<path class="st0" d="M1049,195.5c-1.7-0.5-3,0.2-3,1.9c0,2.6,1.6,3.2,2.9,3.5c1.1,0.2,1.8-0.1,2.2-1.1c0.3-0.8,0.6-1.6,1-2.4
		c1.1-2.8,2.2-3.1,4.4-2.7c3.1,0.6,4.9,3,4.9,6.1c0,1.6-0.5,3.4-2.6,3.9c-0.8,0.2-2.1-0.1-3-0.3v-1.8c2.4,0.6,3.9,0.5,3.9-2.2
		c0-1.8-0.9-3.3-2.8-3.7c-2.5-0.5-2.5,0.5-3.1,2c-0.3,0.8-0.8,2.2-1.3,2.9c-0.8,1.4-2.1,1.5-3.7,1.1c-2.7-0.6-4.4-2.8-4.4-5.5
		c0-3,1.5-4.4,4.6-3.6V195.5z"/>
	<path class="st0" d="M1044.8,189.5v-1.8l11.6,2.5c1.3,0.3,3.3,0.5,3.3-2.4c0-2.9-2-3.5-3.3-3.8l-11.6-2.5v-1.8l12.3,2.6
		c2.9,0.6,4.3,2.8,4.3,5.8s-1.4,4.6-4.3,3.9L1044.8,189.5z"/>
	<path class="st0" d="M1049,170.3c-1.7-0.5-3,0.2-3,1.9c0,2.6,1.6,3.2,2.9,3.5c1.1,0.2,1.8-0.1,2.2-1.1c0.3-0.8,0.6-1.6,1-2.4
		c1.1-2.8,2.2-3.1,4.4-2.7c3.1,0.6,4.9,3,4.9,6.1c0,1.6-0.5,3.4-2.6,3.9c-0.8,0.2-2.1-0.1-3-0.3v-1.8c2.4,0.6,3.9,0.5,3.9-2.2
		c0-1.8-0.9-3.3-2.8-3.7c-2.5-0.5-2.5,0.5-3.1,2c-0.3,0.8-0.8,2.2-1.3,2.9c-0.8,1.4-2.1,1.5-3.7,1.1c-2.7-0.6-4.4-2.8-4.4-5.5
		c0-3,1.5-4.4,4.6-3.6V170.3z"/>
	<polygon class="st0" points="1044.8,165.8 1044.8,155.6 1046.4,155.9 1046.4,160.1 1060.9,163.2 1060.9,165 1046.4,161.9 
		1046.4,166.1 	"/>
	<path class="st0" d="M1044.8,151.6v-2.4l16.2-1.1v2l-4.7,0.3v5.1l4.7,2.2v2L1044.8,151.6z M1046.1,150.7L1046.1,150.7l8.6,4v-4.3
		L1046.1,150.7z"/>
	<polygon class="st0" points="1060.9,145.8 1044.8,142.4 1044.8,140.6 1060.9,144 	"/>
	<path class="st0" d="M1044.8,128.8V127l16.2,3.4v2.9l-12.9,1.8c-0.7,0.1-1.5,0.2-2.4,0.1v0c0.8,0.2,1.7,0.3,2.5,0.5l12.9,2.7v1.8
		l-16.2-3.4v-2.9l13.2-1.8c0.5-0.1,1-0.1,1.8-0.2v0c-0.6-0.1-1.2-0.2-1.8-0.3L1044.8,128.8z"/>
	<path class="st0" d="M1044.8,120.4v-2.4l16.2-1.1v2l-4.7,0.3v5.1l4.7,2.2v2L1044.8,120.4z M1046.1,119.5L1046.1,119.5l8.6,4v-4.3
		L1046.1,119.5z"/>
	<path class="st0" d="M1060.9,115l-16.2-3.4V107c-0.1-3,1.6-3.7,4-3.3c1.8,0.3,2.9,1.1,3.6,3.2l0,0c0.3-2.1,1.8-2.4,3.8-2
		c3.2,0.7,4.9,2.8,4.8,5.9V115z M1059.3,110c0-1.9-0.9-2.8-3-3.3c-3.2-0.7-3,1.4-3,3.3v1.6l6,1.3V110z M1051.7,111.3v-1.6
		c0.1-2.2-0.3-3.5-2.8-4c-2-0.4-2.6,0.2-2.5,2.9v1.6L1051.7,111.3z"/>
	<polygon class="st0" points="1060.9,102.6 1044.8,99.2 1044.8,97.4 1060.9,100.8 	"/>
	<polygon class="st0" points="1060.9,96.9 1044.8,93.5 1044.8,91.7 1059.3,94.8 1059.3,88.2 1060.9,88.6 	"/>
	<polygon class="st0" points="1060.9,85.8 1044.8,82.4 1044.8,80.6 1060.9,84 	"/>
	<polygon class="st0" points="1044.8,78.2 1044.8,68 1046.4,68.4 1046.4,72.6 1060.9,75.6 1060.9,77.4 1046.4,74.4 1046.4,78.5 	"/>
	<polygon class="st0" points="1052.9,63.5 1044.8,57.9 1044.8,55.9 1054.7,62.9 1060.9,64.3 1060.9,66.1 1054.7,64.7 1044.8,67.5 
		1044.8,65.5 	"/>
</g>
</svg>
